<svg width="19" height="19" viewBox="0 0 19 19" fill="none" xmlns="http://www.w3.org/2000/svg">
<g clip-path="url(#clip0_2921_11)">
<path d="M4.10173 11.1832L3.45773 13.5832L1.10273 13.6332C0.390521 12.3067 0.0121351 10.8267 0.000287081 9.32109C-0.0115609 7.81553 0.343486 6.32974 1.03473 4.99219L3.13473 5.37619L4.05273 7.46019C3.63981 8.66828 3.65819 9.98212 4.10473 11.1782L4.10173 11.1832Z" fill="#FBBB00"/>
<path d="M18.346 7.52344C18.66 9.17354 18.5187 10.878 17.9373 12.4539C17.3559 14.0298 16.3564 15.4176 15.0461 16.4684L12.406 16.3334L12.032 14.0004C13.1223 13.3614 13.96 12.3673 14.405 11.1844H9.45703V7.52344H18.346Z" fill="#518EF8"/>
<path d="M15.0495 16.4696C13.9905 17.3194 12.7575 17.9258 11.438 18.2458C10.1185 18.5659 8.74471 18.5918 7.41407 18.3216C6.08344 18.0515 4.82852 17.4919 3.73829 16.6826C2.64806 15.8733 1.74921 14.8341 1.10547 13.6386L4.10547 11.1836C4.38652 11.9346 4.82838 12.615 5.40009 13.1773C5.9718 13.7395 6.65954 14.1699 7.41512 14.4384C8.17069 14.7069 8.97584 14.8069 9.77414 14.7314C10.5724 14.656 11.3446 14.4069 12.0365 14.0016L15.0495 16.4696Z" fill="#28B446"/>
<path d="M15.1641 2.12909L12.1641 4.58309C11.4619 4.14512 10.6701 3.87123 9.84738 3.78183C9.02471 3.69242 8.19247 3.78981 7.41266 4.06672C6.63286 4.34364 5.92558 4.79295 5.34355 5.38118C4.76151 5.96941 4.31971 6.68139 4.05106 7.46409L1.03906 4.99909C1.67488 3.77148 2.57762 2.7019 3.68096 1.8689C4.78431 1.03589 6.06025 0.460622 7.41505 0.185345C8.76986 -0.089932 10.1691 -0.0582266 11.5101 0.278133C12.851 0.614492 14.0996 1.24696 15.1641 2.12909Z" fill="#F14336"/>
</g>
<defs>
<clipPath id="clip0_2921_11">
<rect width="19" height="19" fill="white"/>
</clipPath>
</defs>
</svg>
